IKResults																																											
version=1																																											
nRows=16																																											
nColumns=44																																											
inDegrees=yes																																											
																																											
Units are S.I. units (second, meters, Newtons, ...)																																											
Angles are in degrees.																																											
																																											
endheader																																											
time	ground_spine_rot_x	ground_spine_rot_y	ground_spine_rot_z	ground_spine_tx	ground_spine_ty	ground_spine_tz	clav_prot	clav_elev	scapula_abduction	scapula_elevation	scapula_upward_rot	scapula_winging	plane_elv	shoulder_elv	axial_rot	elbow_flexion	pro_sup	clav_prot_l	clav_elev_l	pitch2	roll2	yaw2	aux7jnt_r3	aux7jnt_r1	aux7jnt_r2	aux6jnt_r3	aux6jnt_r1	aux6jnt_r2	aux5jnt_r3	aux5jnt_r1	aux5jnt_r2	aux4jnt_r3	aux4jnt_r1	aux4jnt_r2	aux3jnt_r3	aux3jnt_r1	aux3jnt_r2	pitch1	roll1	yaw1	aux1jnt_r3	aux1jnt_r1	aux1jnt_r2
2.5	-0.50436073	-0.43315767	-2.87570592	-0.3464844	1.09391773	-0.19984882	-37.34398245	6.64243523	-9.75442391	-12.92492513	25.17430451	21.50414519	-26.69374927	58.85863508	-2.27503441	0	34.32	30.42326055	-1.1607173	0.05678441	0.04588731	-0.01259498	0.6084064	0.36019315	-0.13566815	0.71577048	0.41277674	-0.15803887	0.71577048	0.56789584	-0.15803887	0.53682786	0.56789584	-0.15803887	0.35788524	0.51531376	-0.06783408	-0.18569434	-0.01982299	-0.00672222	-5.9155602	-0.56788691	-0.04275224
2.51	-0.48914808	-0.4643297	-2.87834249	-0.34667201	1.09386795	-0.19977059	-36.91692957	6.30241484	-10.08007838	-12.94820652	23.99173192	21.69377492	-26.66872893	58.30164418	-1.94853202	0	34.32	30.42326055	-1.1607173	0.05845121	0.04476548	-0.01157419	0.62626497	0.3513873	-0.1246726	0.73678051	0.40268535	-0.14523023	0.73678051	0.55401217	-0.14523023	0.55258538	0.55401217	-0.14523023	0.36839026	0.50271559	-0.0623363	-0.18624354	-0.02417016	-0.00711787	-5.9330557	-0.69242407	-0.04526857
2.52	-0.46532842	-0.45462557	-2.86102319	-0.34673428	1.09380507	-0.19973594	-36.58478282	5.99954342	-10.44985328	-12.96660421	22.94998963	21.8812686	-26.73231283	57.54331836	-1.65610922	0	34.32	30.42326055	-1.1607173	0.05966421	0.04179203	-0.01126149	0.63926148	0.32804719	-0.12130437	0.75207048	0.37593788	-0.1413066	0.75207048	0.51721316	-0.1413066	0.56405286	0.51721316	-0.1413066	0.37603524	0.46932384	-0.06065219	-0.18690957	-0.02650678	-0.00609489	-5.95427312	-0.75936343	-0.03876255
2.53	-0.42022136	-0.44326461	-2.84127492	-0.34678361	1.09374225	-0.19983856	-36.16693051	5.75308242	-10.98912878	-12.84921139	21.60743976	22.09923929	-26.53762098	56.98097423	-1.29177098	0	34.32	30.42326055	-1.1607173	0.0607531	0.03695135	-0.01074703	0.6509282	0.2900502	-0.11576277	0.76579601	0.33239381	-0.13485123	0.76579601	0.45730548	-0.13485123	0.574347	0.45730548	-0.13485123	0.382898	0.41496308	-0.05788138	-0.18711882	-0.02580083	-0.00555617	-5.96093895	-0.73913935	-0.03533638
2.54	-0.39571829	-0.44923279	-2.8074861	-0.34673433	1.09368749	-0.1997824	-35.67261444	5.48867669	-12.03070569	-12.57457003	19.65177336	22.45683283	-25.23991373	56.68557732	-0.99762936	0	34.32	30.42326055	-1.1607173	0.05911739	0.03394166	-0.01036211	0.63340261	0.2664256	-0.11161652	0.74517771	0.30532033	-0.1300213	0.74517771	0.42005794	-0.1300213	0.55888329	0.42005794	-0.1300213	0.37258886	0.38116432	-0.05580826	-0.18395619	-0.02695198	-0.00495275	-5.86018885	-0.77211726	-0.03149869
2.55	-0.33263482	-0.4726622	-2.80893002	-0.34689644	1.09366663	-0.19992449	-35.40909949	5.17327741	-12.08434896	-12.67663854	18.95611105	22.58488996	-25.65516476	55.94689739	-0.95290825	0	34.32	30.42326055	-1.1607173	0.06050991	0.02845599	-0.00993608	0.64832252	0.22336574	-0.10702754	0.76273051	0.25597428	-0.12467562	0.76273051	0.35216793	-0.12467562	0.57204788	0.35216793	-0.12467562	0.38136526	0.31956033	-0.05351377	-0.18362718	-0.02810971	-0.00487214	-5.84970777	-0.8052838	-0.03098607
2.56	-0.31133581	-0.45423425	-2.82229716	-0.34711767	1.0935955	-0.19981274	-35.20005535	5.08491719	-12.02995761	-12.64403784	18.55286354	22.61325961	-26.6303798	54.6211724	-0.03556605	0	34.32	30.42326055	-1.1607173	0.06524386	0.01988106	-0.00853219	0.69904358	0.15605665	-0.09190542	0.82240219	0.17883892	-0.10705997	0.82240219	0.24604555	-0.10705997	0.61680165	0.24604555	-0.10705997	0.4112011	0.22326393	-0.04595271	-0.18722746	-0.0174801	-0.00297993	-5.96440002	-0.50076809	-0.0189519
2.57	-0.2859667	-0.48151308	-2.81293895	-0.34713767	1.09357165	-0.19966513	-34.90004817	4.78564484	-12.04932135	-12.71395414	17.81273489	22.73049735	-27.07487456	53.87087521	0.07493137	0	34.32	30.42326055	-1.1607173	0.06634039	0.01716797	-0.00752724	0.71079213	0.13476026	-0.08108041	0.83622399	0.15443354	-0.09445	0.83622399	0.21246877	-0.09445	0.62716799	0.21246877	-0.09445	0.41811199	0.19279606	-0.04054021	-0.186721	-0.01845238	-0.00195219	-5.94826598	-0.52862171	-0.01241564
2.58	-0.20836663	-0.51898728	-2.74935268	-0.34697337	1.09355024	-0.19979709	-34.59933631	4.51767994	-12.16338073	-12.72989699	16.99274343	22.86265788	-27.18582033	53.26259087	0.15686628	0	34.32	30.42326055	-1.1607173	0.05610684	0.00957394	-0.00614778	0.60114664	0.07515076	-0.06622141	0.70722961	0.08612181	-0.07714085	0.70722961	0.11848588	-0.07714085	0.53042221	0.11848588	-0.07714085	0.35361481	0.10751515	-0.0331107	-0.17387346	-0.01502815	-0.00078647	-5.53898888	-0.43052478	-0.00500182
2.59	-0.09691719	-0.50701463	-2.70253271	-0.34684401	1.09352241	-0.20020149	-34.28534165	4.26715393	-12.28601924	-12.71563573	16.13734913	22.99339939	-27.26542527	52.6517684	0.23320564	0	34.32	30.42326055	-1.1607173	0.05097049	0.00303518	-0.00508235	0.54611413	0.02382467	-0.05474507	0.64248564	0.02730276	-0.06377214	0.64248564	0.03756298	-0.06377214	0.48186423	0.03756298	-0.06377214	0.32124282	0.03408498	-0.02737253	-0.16725174	-0.01453678	-0.00000895	-5.32804465	-0.41644811	-0.00005693
2.6	-0.04274117	-0.46278891	-2.75391185	-0.34722013	1.09335404	-0.20028309	-33.9489709	4.10671168	-12.4613897	-12.59251378	15.21843235	23.11279941	-27.68527824	51.88065468	0.63096837	0	34.32	30.42326055	-1.1607173	0.06689345	0.00244482	-0.00504863	0.71671788	0.01919066	-0.05438183	0.84319543	0.02199225	-0.06334901	0.84319543	0.03025681	-0.06334901	0.63239658	0.03025681	-0.06334901	0.42159772	0.0274553	-0.02719092	-0.18381058	-0.01795853	0.00054948	-5.85555017	-0.51447392	0.00349459
2.61	0.03099686	-0.59369372	-2.70208936	-0.34669812	1.09340271	-0.20010641	-33.68131845	3.82864879	-12.58318581	-12.61840437	14.4286547	23.25066851	-27.69719354	51.27049757	0.74777486	0	34.32	30.42326055	-1.1607173	0.06609099	-0.00373974	-0.00327939	0.70812006	-0.02935517	-0.03532425	0.83308038	-0.03364065	-0.04114896	0.83308038	-0.04628261	-0.04114896	0.62481028	-0.04628261	-0.04114896	0.41654019	-0.04199726	-0.01766212	-0.18078025	-0.01828818	0.00226683	-5.75901491	-0.52391771	0.01441671
2.62	0.10265115	-0.61788374	-2.64073885	-0.34651237	1.09342809	-0.20027112	-33.43348527	3.53716554	-12.71289636	-12.66150437	13.65792308	23.39472101	-27.88713524	50.65966845	0.83506374	0	34.32	30.42326055	-1.1607173	0.05601733	-0.01008533	-0.0018956	0.6001876	-0.07916498	-0.02041865	0.70610132	-0.09072205	-0.02378554	0.70610132	-0.12481488	-0.02378554	0.52957599	-0.12481488	-0.02378554	0.35305066	-0.11325813	-0.01020933	-0.16809802	-0.01306623	0.00376115	-5.35500396	-0.37431986	0.02392031
2.63	0.13223523	-0.57741872	-2.64725534	-0.34667485	1.09333234	-0.20016684	-33.06736772	3.40157011	-12.70875293	-12.52920932	12.83567163	23.45946574	-28.36705642	49.89087644	1.00064099	0	34.32	30.42326055	-1.1607173	0.06122149	-0.01169018	-0.00165625	0.65594662	-0.09176225	-0.01784048	0.77170001	-0.10515837	-0.02078225	0.77170001	-0.14467627	-0.02078225	0.57877501	-0.14467627	-0.02078225	0.38585001	-0.13128054	-0.00892024	-0.17256198	-0.01342749	0.00403169	-5.49720983	-0.38466938	0.02564089
2.64	0.18690038	-0.55497485	-2.67587248	-0.34690532	1.09322177	-0.2002135	-33.45235072	3.14243505	-10.32863576	-13.64583266	15.77968439	22.86795939	-34.35630899	47.78478793	12.99162901	0	34.32	30.42326055	-1.1607173	0.07448687	-0.01428433	-0.00453336	0.79807623	-0.11212506	-0.0488316	0.93891091	-0.12849389	-0.05688358	0.93891091	-0.17678114	-0.05688358	0.70418318	-0.17678114	-0.05688358	0.46945546	-0.16041279	-0.0244158	-0.18805691	-0.01267092	0.00896275	-5.99082309	-0.3629952	0.0570017
2.65	0.28381473	-0.53756388	-2.60212239	-0.34664069	1.09324297	-0.20048909	-33.19360527	2.92739086	-10.45730382	-13.63025108	15.04211303	22.97740658	-34.32110444	47.32115589	12.89612167	0	34.32	30.42326055	-1.1607173	0.06432549	-0.01883788	-0.00370957	0.68920388	-0.14786825	-0.03995804	0.81082611	-0.16945512	-0.04654683	0.81082611	-0.23313537	-0.04654683	0.60811958	-0.23313537	-0.04654683	0.40541305	-0.21154912	-0.01997902	-0.1763958	-0.01159774	0.00941253	-5.61934174	-0.3322507	0.05986219
